<svg width="380" height="312" viewBox="0 0 380 312" fill="none" xmlns="http://www.w3.org/2000/svg">
<rect width="380" height="312" rx="2" fill="#F8FFF6"/>
<rect width="380" height="80" transform="translate(0 232)" fill="#0C4F24"/>
<path d="M124.8 279V264.4H128.68L132.34 273.12H132.7L136.34 264.4H140.28V279H137.46V266.54L137.82 266.58L133.88 276.02H130.98L127.02 266.58L127.4 266.54V279H124.8ZM143.782 279V268.14H146.562V279H143.782ZM142.262 270.22V268.14H146.562V270.22H142.262ZM144.802 266.84C144.255 266.84 143.849 266.7 143.582 266.42C143.329 266.127 143.202 265.76 143.202 265.32C143.202 264.88 143.329 264.52 143.582 264.24C143.849 263.96 144.255 263.82 144.802 263.82C145.349 263.82 145.749 263.96 146.002 264.24C146.255 264.52 146.382 264.88 146.382 265.32C146.382 265.76 146.255 266.127 146.002 266.42C145.749 266.7 145.349 266.84 144.802 266.84ZM149.366 279V268.14H151.566V272.8H151.366C151.366 271.693 151.513 270.773 151.806 270.04C152.099 269.293 152.533 268.733 153.106 268.36C153.693 267.987 154.419 267.8 155.286 267.8H155.406C156.699 267.8 157.679 268.22 158.346 269.06C159.013 269.887 159.346 271.127 159.346 272.78V279H156.566V272.54C156.566 271.873 156.373 271.333 155.986 270.92C155.613 270.507 155.093 270.3 154.426 270.3C153.746 270.3 153.193 270.513 152.766 270.94C152.353 271.353 152.146 271.913 152.146 272.62V279H149.366ZM162.455 279V268.14H165.235V279H162.455ZM160.935 270.22V268.14H165.235V270.22H160.935ZM163.475 266.84C162.928 266.84 162.521 266.7 162.255 266.42C162.001 266.127 161.875 265.76 161.875 265.32C161.875 264.88 162.001 264.52 162.255 264.24C162.521 263.96 162.928 263.82 163.475 263.82C164.021 263.82 164.421 263.96 164.675 264.24C164.928 264.52 165.055 264.88 165.055 265.32C165.055 265.76 164.928 266.127 164.675 266.42C164.421 266.7 164.021 266.84 163.475 266.84ZM171.979 279.34C170.485 279.34 169.312 279.027 168.459 278.4C167.619 277.76 167.179 276.88 167.139 275.76H169.639C169.679 276.133 169.885 276.473 170.259 276.78C170.632 277.087 171.219 277.24 172.019 277.24C172.685 277.24 173.212 277.12 173.599 276.88C173.999 276.64 174.199 276.313 174.199 275.9C174.199 275.54 174.045 275.253 173.739 275.04C173.445 274.827 172.939 274.687 172.219 274.62L171.259 274.52C170.045 274.387 169.112 274.04 168.459 273.48C167.805 272.92 167.479 272.173 167.479 271.24C167.479 270.493 167.665 269.867 168.039 269.36C168.412 268.853 168.925 268.473 169.579 268.22C170.245 267.953 171.005 267.82 171.859 267.82C173.192 267.82 174.272 268.113 175.099 268.7C175.925 269.287 176.359 270.147 176.399 271.28H173.899C173.872 270.907 173.685 270.587 173.339 270.32C172.992 270.053 172.492 269.92 171.839 269.92C171.252 269.92 170.799 270.033 170.479 270.26C170.159 270.487 169.999 270.78 169.999 271.14C169.999 271.487 170.125 271.753 170.379 271.94C170.645 272.127 171.072 272.253 171.659 272.32L172.619 272.42C173.899 272.553 174.899 272.907 175.619 273.48C176.352 274.053 176.719 274.827 176.719 275.8C176.719 276.52 176.519 277.147 176.119 277.68C175.732 278.2 175.185 278.607 174.479 278.9C173.772 279.193 172.939 279.34 171.979 279.34ZM183.335 279.14C182.335 279.14 181.508 279.013 180.855 278.76C180.215 278.493 179.735 278.053 179.415 277.44C179.095 276.813 178.935 275.973 178.935 274.92L178.955 265.08H181.555L181.535 275.1C181.535 275.633 181.675 276.047 181.955 276.34C182.248 276.62 182.662 276.76 183.195 276.76H184.895V279.14H183.335ZM177.215 270.18V268.14H184.895V270.18H177.215ZM186.828 279V268.14H189.028V272.74H188.968C188.968 271.18 189.302 270 189.968 269.2C190.635 268.4 191.615 268 192.908 268H193.308V270.42H192.548C191.615 270.42 190.888 270.673 190.368 271.18C189.862 271.673 189.608 272.393 189.608 273.34V279H186.828ZM195.288 279V268.14H198.068V279H195.288ZM193.768 270.22V268.14H198.068V270.22H193.768ZM196.308 266.84C195.762 266.84 195.355 266.7 195.088 266.42C194.835 266.127 194.708 265.76 194.708 265.32C194.708 264.88 194.835 264.52 195.088 264.24C195.355 263.96 195.762 263.82 196.308 263.82C196.855 263.82 197.255 263.96 197.508 264.24C197.762 264.52 197.888 264.88 197.888 265.32C197.888 265.76 197.762 266.127 197.508 266.42C197.255 266.7 196.855 266.84 196.308 266.84ZM205.732 279.38C204.799 279.38 203.979 279.22 203.272 278.9C202.579 278.58 201.999 278.153 201.532 277.62C201.079 277.073 200.732 276.467 200.492 275.8C200.266 275.133 200.152 274.453 200.152 273.76V273.38C200.152 272.66 200.266 271.967 200.492 271.3C200.732 270.62 201.079 270.02 201.532 269.5C201.999 268.967 202.572 268.547 203.252 268.24C203.932 267.92 204.719 267.76 205.612 267.76C206.786 267.76 207.766 268.02 208.552 268.54C209.352 269.047 209.952 269.72 210.352 270.56C210.752 271.387 210.952 272.28 210.952 273.24V274.24H201.332V272.54H209.212L208.352 273.38C208.352 272.687 208.252 272.093 208.052 271.6C207.852 271.107 207.546 270.727 207.132 270.46C206.732 270.193 206.226 270.06 205.612 270.06C204.999 270.06 204.479 270.2 204.052 270.48C203.626 270.76 203.299 271.167 203.072 271.7C202.859 272.22 202.752 272.847 202.752 273.58C202.752 274.26 202.859 274.867 203.072 275.4C203.286 275.92 203.612 276.333 204.052 276.64C204.492 276.933 205.052 277.08 205.732 277.08C206.412 277.08 206.966 276.947 207.392 276.68C207.819 276.4 208.092 276.06 208.212 275.66H210.772C210.612 276.407 210.306 277.06 209.852 277.62C209.399 278.18 208.819 278.613 208.112 278.92C207.419 279.227 206.626 279.38 205.732 279.38ZM216.815 279.34C215.321 279.34 214.148 279.027 213.295 278.4C212.455 277.76 212.015 276.88 211.975 275.76H214.475C214.515 276.133 214.721 276.473 215.095 276.78C215.468 277.087 216.055 277.24 216.855 277.24C217.521 277.24 218.048 277.12 218.435 276.88C218.835 276.64 219.035 276.313 219.035 275.9C219.035 275.54 218.881 275.253 218.575 275.04C218.281 274.827 217.775 274.687 217.055 274.62L216.095 274.52C214.881 274.387 213.948 274.04 213.295 273.48C212.641 272.92 212.315 272.173 212.315 271.24C212.315 270.493 212.501 269.867 212.875 269.36C213.248 268.853 213.761 268.473 214.415 268.22C215.081 267.953 215.841 267.82 216.695 267.82C218.028 267.82 219.108 268.113 219.935 268.7C220.761 269.287 221.195 270.147 221.235 271.28H218.735C218.708 270.907 218.521 270.587 218.175 270.32C217.828 270.053 217.328 269.92 216.675 269.92C216.088 269.92 215.635 270.033 215.315 270.26C214.995 270.487 214.835 270.78 214.835 271.14C214.835 271.487 214.961 271.753 215.215 271.94C215.481 272.127 215.908 272.253 216.495 272.32L217.455 272.42C218.735 272.553 219.735 272.907 220.455 273.48C221.188 274.053 221.555 274.827 221.555 275.8C221.555 276.52 221.355 277.147 220.955 277.68C220.568 278.2 220.021 278.607 219.315 278.9C218.608 279.193 217.775 279.34 216.815 279.34Z" fill="white"/>
<path d="M245 282C250.523 282 255 277.523 255 272C255 266.477 250.523 262 245 262C239.477 262 235 266.477 235 272C235 277.523 239.477 282 245 282Z" stroke="white" stroke-width="1.5" stroke-linecap="round" stroke-linejoin="round"/>
<g opacity="0.54">
<path d="M241.5 272H247.5" stroke="white" stroke-width="1.5" stroke-linecap="round" stroke-linejoin="round"/>
<path d="M245.5 275L248.5 272L245.5 269" stroke="white" stroke-width="1.5" stroke-linecap="round" stroke-linejoin="round"/>
</g>
<rect x="137.5" y="65.5" width="106" height="101" rx="19.5" fill="white"/>
<rect x="137.5" y="65.5" width="106" height="101" rx="19.5" stroke="#52A43E"/>
<path d="M201 109.183C200.95 109.183 200.916 109.183 200.866 109.183H200.783C197.633 109.083 195.283 106.65 195.283 103.65C195.283 100.583 197.783 98.1 200.833 98.1C203.883 98.1 206.383 100.6 206.383 103.65C206.366 106.667 204.016 109.1 201.016 109.2C201.016 109.183 201.016 109.183 201 109.183ZM200.833 100.583C199.15 100.583 197.783 101.95 197.783 103.633C197.783 105.283 199.066 106.617 200.716 106.683C200.733 106.667 200.866 106.667 201.016 106.683C202.633 106.6 203.883 105.267 203.9 103.633C203.9 101.95 202.533 100.583 200.833 100.583Z" fill="#0C4F24"/>
<path d="M201.017 121.467C200.367 121.467 199.717 121.417 199.067 121.3C198.383 121.183 197.933 120.533 198.05 119.85C198.167 119.167 198.817 118.717 199.5 118.833C201.55 119.183 203.717 118.8 205.167 117.833C205.95 117.317 206.367 116.667 206.367 116.017C206.367 115.367 205.933 114.733 205.167 114.217C203.717 113.25 201.517 112.867 199.45 113.233C198.767 113.367 198.117 112.9 198 112.217C197.883 111.533 198.333 110.883 199.017 110.767C201.733 110.283 204.55 110.8 206.55 112.133C208.017 113.117 208.867 114.517 208.867 116.017C208.867 117.5 208.033 118.917 206.55 119.917C205.033 120.917 203.067 121.467 201.017 121.467Z" fill="#0C4F24"/>
<path d="M180.95 109.183C180.933 109.183 180.917 109.183 180.917 109.183C177.917 109.083 175.567 106.65 175.55 103.65C175.55 100.583 178.05 98.0834 181.1 98.0834C184.15 98.0834 186.65 100.583 186.65 103.633C186.65 106.65 184.3 109.083 181.3 109.183L180.95 107.933L181.067 109.183C181.033 109.183 180.983 109.183 180.95 109.183ZM181.117 106.683C181.217 106.683 181.3 106.683 181.4 106.7C182.883 106.633 184.183 105.3 184.183 103.65C184.183 101.967 182.817 100.6 181.133 100.6C179.45 100.6 178.083 101.967 178.083 103.65C178.083 105.283 179.35 106.6 180.967 106.7C180.983 106.683 181.05 106.683 181.117 106.683Z" fill="#0C4F24"/>
<path d="M180.933 121.467C178.883 121.467 176.917 120.917 175.4 119.917C173.933 118.933 173.083 117.517 173.083 116.017C173.083 114.533 173.933 113.117 175.4 112.133C177.4 110.8 180.217 110.283 182.933 110.767C183.617 110.883 184.067 111.533 183.95 112.217C183.833 112.9 183.183 113.367 182.5 113.233C180.433 112.867 178.25 113.25 176.783 114.217C176 114.733 175.583 115.367 175.583 116.017C175.583 116.667 176.017 117.317 176.783 117.833C178.233 118.8 180.4 119.183 182.45 118.833C183.133 118.717 183.783 119.183 183.9 119.85C184.017 120.533 183.567 121.183 182.883 121.3C182.233 121.417 181.583 121.467 180.933 121.467Z" fill="#0C4F24"/>
<path d="M191 121.633C190.95 121.633 190.916 121.633 190.866 121.633H190.783C187.633 121.533 185.283 119.1 185.283 116.1C185.283 113.033 187.783 110.55 190.833 110.55C193.883 110.55 196.383 113.05 196.383 116.1C196.366 119.117 194.016 121.55 191.016 121.65C191.016 121.633 191.016 121.633 191 121.633ZM190.833 113.033C189.15 113.033 187.783 114.4 187.783 116.083C187.783 117.733 189.066 119.067 190.716 119.133C190.733 119.117 190.866 119.117 191.016 119.133C192.633 119.05 193.883 117.717 193.9 116.083C193.9 114.417 192.533 113.033 190.833 113.033Z" fill="#0C4F24"/>
<path d="M191 133.933C189 133.933 187 133.417 185.45 132.367C183.983 131.383 183.133 129.983 183.133 128.483C183.133 127 183.966 125.567 185.45 124.583C188.566 122.517 193.45 122.517 196.55 124.583C198.016 125.567 198.866 126.967 198.866 128.467C198.866 129.95 198.033 131.383 196.55 132.367C195 133.4 193 133.933 191 133.933ZM186.833 126.683C186.05 127.2 185.633 127.85 185.633 128.5C185.633 129.15 186.066 129.783 186.833 130.3C189.083 131.817 192.9 131.817 195.15 130.3C195.933 129.783 196.35 129.133 196.35 128.483C196.35 127.833 195.916 127.2 195.15 126.683C192.916 125.167 189.1 125.183 186.833 126.683Z" fill="#0C4F24"/>
</svg>
