<svg width="380" height="312" viewBox="0 0 380 312" fill="none" xmlns="http://www.w3.org/2000/svg">
<rect width="380" height="312" rx="2" fill="#F8FFF6"/>
<rect width="380" height="80" transform="translate(0 232)" fill="#0C4F24"/>
<path d="M85.1 279.38C83.8467 279.38 82.74 279.173 81.78 278.76C80.8333 278.333 80.0333 277.767 79.38 277.06C78.74 276.34 78.2533 275.533 77.92 274.64C77.6 273.733 77.44 272.793 77.44 271.82V271.38C77.44 270.46 77.6 269.56 77.92 268.68C78.24 267.8 78.7067 267.007 79.32 266.3C79.9467 265.593 80.7133 265.033 81.62 264.62C82.54 264.193 83.5933 263.98 84.78 263.98C86.06 263.98 87.1933 264.22 88.18 264.7C89.1667 265.167 89.96 265.827 90.56 266.68C91.16 267.52 91.5133 268.5 91.62 269.62H88.76C88.6667 268.993 88.4333 268.46 88.06 268.02C87.6867 267.567 87.2133 267.22 86.64 266.98C86.08 266.74 85.46 266.62 84.78 266.62C84.1 266.62 83.48 266.74 82.92 266.98C82.3733 267.22 81.9067 267.56 81.52 268C81.1333 268.44 80.8333 268.967 80.62 269.58C80.42 270.193 80.32 270.873 80.32 271.62C80.32 272.433 80.4333 273.16 80.66 273.8C80.8867 274.44 81.2067 274.987 81.62 275.44C82.0333 275.88 82.5333 276.22 83.12 276.46C83.7067 276.687 84.3667 276.8 85.1 276.8C86.0733 276.8 86.9267 276.6 87.66 276.2C88.3933 275.787 88.9267 275.253 89.26 274.6L88.76 276.9V273.14H91.38V276.38C90.7533 277.327 89.9 278.067 88.82 278.6C87.74 279.12 86.5 279.38 85.1 279.38ZM84.64 273.7V271.58H92.6V273.7H84.64ZM99.5406 279.38C98.5806 279.38 97.734 279.227 97.0006 278.92C96.2673 278.613 95.6473 278.2 95.1406 277.68C94.634 277.147 94.2473 276.547 93.9806 275.88C93.7273 275.213 93.6006 274.52 93.6006 273.8V273.38C93.6006 272.633 93.734 271.927 94.0006 271.26C94.2806 270.58 94.674 269.98 95.1806 269.46C95.7006 268.927 96.3273 268.513 97.0606 268.22C97.794 267.913 98.6206 267.76 99.5406 267.76C100.461 267.76 101.287 267.913 102.021 268.22C102.754 268.513 103.374 268.927 103.881 269.46C104.401 269.98 104.794 270.58 105.061 271.26C105.327 271.927 105.461 272.633 105.461 273.38V273.8C105.461 274.52 105.327 275.213 105.061 275.88C104.807 276.547 104.427 277.147 103.921 277.68C103.414 278.2 102.794 278.613 102.061 278.92C101.327 279.227 100.487 279.38 99.5406 279.38ZM99.5406 277C100.221 277 100.794 276.853 101.261 276.56C101.727 276.253 102.081 275.847 102.321 275.34C102.561 274.82 102.681 274.233 102.681 273.58C102.681 272.913 102.554 272.327 102.301 271.82C102.061 271.3 101.701 270.893 101.221 270.6C100.754 270.293 100.194 270.14 99.5406 270.14C98.8873 270.14 98.3206 270.293 97.8406 270.6C97.374 270.893 97.014 271.3 96.7606 271.82C96.5073 272.327 96.3806 272.913 96.3806 273.58C96.3806 274.233 96.5006 274.82 96.7406 275.34C96.994 275.847 97.354 276.253 97.8206 276.56C98.2873 276.853 98.8606 277 99.5406 277ZM109.44 279L106.04 268.14H108.9L112.16 279H109.44ZM110.26 279V276.72H113.2V279H110.26ZM111.36 279L114.16 268.14H116.84L113.9 279H111.36ZM123.166 279.38C122.232 279.38 121.412 279.22 120.706 278.9C120.012 278.58 119.432 278.153 118.966 277.62C118.512 277.073 118.166 276.467 117.926 275.8C117.699 275.133 117.586 274.453 117.586 273.76V273.38C117.586 272.66 117.699 271.967 117.926 271.3C118.166 270.62 118.512 270.02 118.966 269.5C119.432 268.967 120.006 268.547 120.686 268.24C121.366 267.92 122.152 267.76 123.046 267.76C124.219 267.76 125.199 268.02 125.986 268.54C126.786 269.047 127.386 269.72 127.786 270.56C128.186 271.387 128.386 272.28 128.386 273.24V274.24H118.766V272.54H126.646L125.786 273.38C125.786 272.687 125.686 272.093 125.486 271.6C125.286 271.107 124.979 270.727 124.566 270.46C124.166 270.193 123.659 270.06 123.046 270.06C122.432 270.06 121.912 270.2 121.486 270.48C121.059 270.76 120.732 271.167 120.506 271.7C120.292 272.22 120.186 272.847 120.186 273.58C120.186 274.26 120.292 274.867 120.506 275.4C120.719 275.92 121.046 276.333 121.486 276.64C121.926 276.933 122.486 277.08 123.166 277.08C123.846 277.08 124.399 276.947 124.826 276.68C125.252 276.4 125.526 276.06 125.646 275.66H128.206C128.046 276.407 127.739 277.06 127.286 277.62C126.832 278.18 126.252 278.613 125.546 278.92C124.852 279.227 124.059 279.38 123.166 279.38ZM130.308 279V268.14H132.508V272.74H132.448C132.448 271.18 132.781 270 133.448 269.2C134.115 268.4 135.095 268 136.388 268H136.788V270.42H136.028C135.095 270.42 134.368 270.673 133.848 271.18C133.341 271.673 133.088 272.393 133.088 273.34V279H130.308ZM138.248 279V268.14H140.448V272.8H140.248C140.248 271.693 140.395 270.773 140.688 270.04C140.981 269.293 141.415 268.733 141.988 268.36C142.575 267.987 143.301 267.8 144.168 267.8H144.288C145.581 267.8 146.561 268.22 147.228 269.06C147.895 269.887 148.228 271.127 148.228 272.78V279H145.448V272.54C145.448 271.873 145.255 271.333 144.868 270.92C144.495 270.507 143.975 270.3 143.308 270.3C142.628 270.3 142.075 270.513 141.648 270.94C141.235 271.353 141.028 271.913 141.028 272.62V279H138.248ZM150.817 279V268.14H153.017V272.8H152.817C152.817 271.707 152.957 270.793 153.237 270.06C153.517 269.313 153.93 268.753 154.477 268.38C155.037 267.993 155.73 267.8 156.557 267.8H156.677C157.517 267.8 158.21 267.993 158.757 268.38C159.317 268.753 159.73 269.313 159.997 270.06C160.277 270.793 160.417 271.707 160.417 272.8H159.717C159.717 271.707 159.857 270.793 160.137 270.06C160.43 269.313 160.85 268.753 161.397 268.38C161.957 267.993 162.65 267.8 163.477 267.8H163.597C164.437 267.8 165.137 267.993 165.697 268.38C166.257 268.753 166.677 269.313 166.957 270.06C167.25 270.793 167.397 271.707 167.397 272.8V279H164.617V272.54C164.617 271.86 164.443 271.32 164.097 270.92C163.75 270.507 163.257 270.3 162.617 270.3C161.977 270.3 161.463 270.513 161.077 270.94C160.69 271.353 160.497 271.913 160.497 272.62V279H157.717V272.54C157.717 271.86 157.543 271.32 157.197 270.92C156.85 270.507 156.357 270.3 155.717 270.3C155.077 270.3 154.563 270.513 154.177 270.94C153.79 271.353 153.597 271.913 153.597 272.62V279H150.817ZM174.827 279.38C173.894 279.38 173.074 279.22 172.367 278.9C171.674 278.58 171.094 278.153 170.627 277.62C170.174 277.073 169.827 276.467 169.587 275.8C169.361 275.133 169.247 274.453 169.247 273.76V273.38C169.247 272.66 169.361 271.967 169.587 271.3C169.827 270.62 170.174 270.02 170.627 269.5C171.094 268.967 171.667 268.547 172.347 268.24C173.027 267.92 173.814 267.76 174.707 267.76C175.881 267.76 176.861 268.02 177.647 268.54C178.447 269.047 179.047 269.72 179.447 270.56C179.847 271.387 180.047 272.28 180.047 273.24V274.24H170.427V272.54H178.307L177.447 273.38C177.447 272.687 177.347 272.093 177.147 271.6C176.947 271.107 176.641 270.727 176.227 270.46C175.827 270.193 175.321 270.06 174.707 270.06C174.094 270.06 173.574 270.2 173.147 270.48C172.721 270.76 172.394 271.167 172.167 271.7C171.954 272.22 171.847 272.847 171.847 273.58C171.847 274.26 171.954 274.867 172.167 275.4C172.381 275.92 172.707 276.333 173.147 276.64C173.587 276.933 174.147 277.08 174.827 277.08C175.507 277.08 176.061 276.947 176.487 276.68C176.914 276.4 177.187 276.06 177.307 275.66H179.867C179.707 276.407 179.401 277.06 178.947 277.62C178.494 278.18 177.914 278.613 177.207 278.92C176.514 279.227 175.721 279.38 174.827 279.38ZM181.97 279V268.14H184.17V272.8H183.97C183.97 271.693 184.117 270.773 184.41 270.04C184.703 269.293 185.137 268.733 185.71 268.36C186.297 267.987 187.023 267.8 187.89 267.8H188.01C189.303 267.8 190.283 268.22 190.95 269.06C191.617 269.887 191.95 271.127 191.95 272.78V279H189.17V272.54C189.17 271.873 188.977 271.333 188.59 270.92C188.217 270.507 187.697 270.3 187.03 270.3C186.35 270.3 185.797 270.513 185.37 270.94C184.957 271.353 184.75 271.913 184.75 272.62V279H181.97ZM199.259 279.14C198.259 279.14 197.432 279.013 196.779 278.76C196.139 278.493 195.659 278.053 195.339 277.44C195.019 276.813 194.859 275.973 194.859 274.92L194.879 265.08H197.479L197.459 275.1C197.459 275.633 197.599 276.047 197.879 276.34C198.172 276.62 198.585 276.76 199.119 276.76H200.819V279.14H199.259ZM193.139 270.18V268.14H200.819V270.18H193.139ZM216.468 279V264.4H219.308V279H216.468ZM206.888 279V264.4H209.728V279H206.888ZM209.208 272.94V270.44H216.988V272.94H209.208ZM227.504 279.38C226.544 279.38 225.697 279.227 224.964 278.92C224.231 278.613 223.611 278.2 223.104 277.68C222.597 277.147 222.211 276.547 221.944 275.88C221.691 275.213 221.564 274.52 221.564 273.8V273.38C221.564 272.633 221.697 271.927 221.964 271.26C222.244 270.58 222.637 269.98 223.144 269.46C223.664 268.927 224.291 268.513 225.024 268.22C225.757 267.913 226.584 267.76 227.504 267.76C228.424 267.76 229.251 267.913 229.984 268.22C230.717 268.513 231.337 268.927 231.844 269.46C232.364 269.98 232.757 270.58 233.024 271.26C233.291 271.927 233.424 272.633 233.424 273.38V273.8C233.424 274.52 233.291 275.213 233.024 275.88C232.771 276.547 232.391 277.147 231.884 277.68C231.377 278.2 230.757 278.613 230.024 278.92C229.291 279.227 228.451 279.38 227.504 279.38ZM227.504 277C228.184 277 228.757 276.853 229.224 276.56C229.691 276.253 230.044 275.847 230.284 275.34C230.524 274.82 230.644 274.233 230.644 273.58C230.644 272.913 230.517 272.327 230.264 271.82C230.024 271.3 229.664 270.893 229.184 270.6C228.717 270.293 228.157 270.14 227.504 270.14C226.851 270.14 226.284 270.293 225.804 270.6C225.337 270.893 224.977 271.3 224.724 271.82C224.471 272.327 224.344 272.913 224.344 273.58C224.344 274.233 224.464 274.82 224.704 275.34C224.957 275.847 225.317 276.253 225.784 276.56C226.251 276.853 226.824 277 227.504 277ZM239.158 279.34C237.905 279.34 236.931 278.927 236.238 278.1C235.558 277.273 235.218 276.047 235.218 274.42V268.12H237.998V274.66C237.998 275.327 238.185 275.86 238.558 276.26C238.931 276.647 239.438 276.84 240.078 276.84C240.718 276.84 241.238 276.633 241.638 276.22C242.051 275.807 242.258 275.247 242.258 274.54V268.12H245.038V279H242.838V274.38H243.058C243.058 275.473 242.918 276.387 242.638 277.12C242.358 277.853 241.938 278.407 241.378 278.78C240.818 279.153 240.118 279.34 239.278 279.34H239.158ZM251.772 279.34C250.278 279.34 249.105 279.027 248.252 278.4C247.412 277.76 246.972 276.88 246.932 275.76H249.432C249.472 276.133 249.678 276.473 250.052 276.78C250.425 277.087 251.012 277.24 251.812 277.24C252.478 277.24 253.005 277.12 253.392 276.88C253.792 276.64 253.992 276.313 253.992 275.9C253.992 275.54 253.838 275.253 253.532 275.04C253.238 274.827 252.732 274.687 252.012 274.62L251.052 274.52C249.838 274.387 248.905 274.04 248.252 273.48C247.598 272.92 247.272 272.173 247.272 271.24C247.272 270.493 247.458 269.867 247.832 269.36C248.205 268.853 248.718 268.473 249.372 268.22C250.038 267.953 250.798 267.82 251.652 267.82C252.985 267.82 254.065 268.113 254.892 268.7C255.718 269.287 256.152 270.147 256.192 271.28H253.692C253.665 270.907 253.478 270.587 253.132 270.32C252.785 270.053 252.285 269.92 251.632 269.92C251.045 269.92 250.592 270.033 250.272 270.26C249.952 270.487 249.792 270.78 249.792 271.14C249.792 271.487 249.918 271.753 250.172 271.94C250.438 272.127 250.865 272.253 251.452 272.32L252.412 272.42C253.692 272.553 254.692 272.907 255.412 273.48C256.145 274.053 256.512 274.827 256.512 275.8C256.512 276.52 256.312 277.147 255.912 277.68C255.525 278.2 254.978 278.607 254.272 278.9C253.565 279.193 252.732 279.34 251.772 279.34ZM263.268 279.38C262.335 279.38 261.515 279.22 260.808 278.9C260.115 278.58 259.535 278.153 259.068 277.62C258.615 277.073 258.268 276.467 258.028 275.8C257.801 275.133 257.688 274.453 257.688 273.76V273.38C257.688 272.66 257.801 271.967 258.028 271.3C258.268 270.62 258.615 270.02 259.068 269.5C259.535 268.967 260.108 268.547 260.788 268.24C261.468 267.92 262.255 267.76 263.148 267.76C264.321 267.76 265.301 268.02 266.088 268.54C266.888 269.047 267.488 269.72 267.888 270.56C268.288 271.387 268.488 272.28 268.488 273.24V274.24H258.868V272.54H266.748L265.888 273.38C265.888 272.687 265.788 272.093 265.588 271.6C265.388 271.107 265.081 270.727 264.668 270.46C264.268 270.193 263.761 270.06 263.148 270.06C262.535 270.06 262.015 270.2 261.588 270.48C261.161 270.76 260.835 271.167 260.608 271.7C260.395 272.22 260.288 272.847 260.288 273.58C260.288 274.26 260.395 274.867 260.608 275.4C260.821 275.92 261.148 276.333 261.588 276.64C262.028 276.933 262.588 277.08 263.268 277.08C263.948 277.08 264.501 276.947 264.928 276.68C265.355 276.4 265.628 276.06 265.748 275.66H268.308C268.148 276.407 267.841 277.06 267.388 277.62C266.935 278.18 266.355 278.613 265.648 278.92C264.955 279.227 264.161 279.38 263.268 279.38Z" fill="white"/>
<path d="M291.5 282C297.023 282 301.5 277.523 301.5 272C301.5 266.477 297.023 262 291.5 262C285.977 262 281.5 266.477 281.5 272C281.5 277.523 285.977 282 291.5 282Z" stroke="white" stroke-width="1.5" stroke-linecap="round" stroke-linejoin="round"/>
<g opacity="0.54">
<path d="M288 272H294" stroke="white" stroke-width="1.5" stroke-linecap="round" stroke-linejoin="round"/>
<path d="M292 275L295 272L292 269" stroke="white" stroke-width="1.5" stroke-linecap="round" stroke-linejoin="round"/>
</g>
<rect x="137.5" y="65.5" width="106" height="101" rx="19.5" fill="white"/>
<rect x="137.5" y="65.5" width="106" height="101" rx="19.5" stroke="#52A43E"/>
<path d="M201 109.183C200.95 109.183 200.916 109.183 200.866 109.183H200.783C197.633 109.083 195.283 106.65 195.283 103.65C195.283 100.583 197.783 98.1 200.833 98.1C203.883 98.1 206.383 100.6 206.383 103.65C206.366 106.667 204.016 109.1 201.016 109.2C201.016 109.183 201.016 109.183 201 109.183ZM200.833 100.583C199.15 100.583 197.783 101.95 197.783 103.633C197.783 105.283 199.066 106.617 200.716 106.683C200.733 106.667 200.866 106.667 201.016 106.683C202.633 106.6 203.883 105.267 203.9 103.633C203.9 101.95 202.533 100.583 200.833 100.583Z" fill="#0C4F24"/>
<path d="M201.017 121.467C200.367 121.467 199.717 121.417 199.067 121.3C198.383 121.183 197.933 120.533 198.05 119.85C198.167 119.167 198.817 118.717 199.5 118.833C201.55 119.183 203.717 118.8 205.167 117.833C205.95 117.317 206.367 116.667 206.367 116.017C206.367 115.367 205.933 114.733 205.167 114.217C203.717 113.25 201.517 112.867 199.45 113.233C198.767 113.367 198.117 112.9 198 112.217C197.883 111.533 198.333 110.883 199.017 110.767C201.733 110.283 204.55 110.8 206.55 112.133C208.017 113.117 208.867 114.517 208.867 116.017C208.867 117.5 208.033 118.917 206.55 119.917C205.033 120.917 203.067 121.467 201.017 121.467Z" fill="#0C4F24"/>
<path d="M180.95 109.183C180.933 109.183 180.917 109.183 180.917 109.183C177.917 109.083 175.567 106.65 175.55 103.65C175.55 100.583 178.05 98.0834 181.1 98.0834C184.15 98.0834 186.65 100.583 186.65 103.633C186.65 106.65 184.3 109.083 181.3 109.183L180.95 107.933L181.067 109.183C181.033 109.183 180.983 109.183 180.95 109.183ZM181.117 106.683C181.217 106.683 181.3 106.683 181.4 106.7C182.883 106.633 184.183 105.3 184.183 103.65C184.183 101.967 182.817 100.6 181.133 100.6C179.45 100.6 178.083 101.967 178.083 103.65C178.083 105.283 179.35 106.6 180.967 106.7C180.983 106.683 181.05 106.683 181.117 106.683Z" fill="#0C4F24"/>
<path d="M180.933 121.467C178.883 121.467 176.917 120.917 175.4 119.917C173.933 118.933 173.083 117.517 173.083 116.017C173.083 114.533 173.933 113.117 175.4 112.133C177.4 110.8 180.217 110.283 182.933 110.767C183.617 110.883 184.067 111.533 183.95 112.217C183.833 112.9 183.183 113.367 182.5 113.233C180.433 112.867 178.25 113.25 176.783 114.217C176 114.733 175.583 115.367 175.583 116.017C175.583 116.667 176.017 117.317 176.783 117.833C178.233 118.8 180.4 119.183 182.45 118.833C183.133 118.717 183.783 119.183 183.9 119.85C184.017 120.533 183.567 121.183 182.883 121.3C182.233 121.417 181.583 121.467 180.933 121.467Z" fill="#0C4F24"/>
<path d="M191 121.633C190.95 121.633 190.916 121.633 190.866 121.633H190.783C187.633 121.533 185.283 119.1 185.283 116.1C185.283 113.033 187.783 110.55 190.833 110.55C193.883 110.55 196.383 113.05 196.383 116.1C196.366 119.117 194.016 121.55 191.016 121.65C191.016 121.633 191.016 121.633 191 121.633ZM190.833 113.033C189.15 113.033 187.783 114.4 187.783 116.083C187.783 117.733 189.066 119.067 190.716 119.133C190.733 119.117 190.866 119.117 191.016 119.133C192.633 119.05 193.883 117.717 193.9 116.083C193.9 114.417 192.533 113.033 190.833 113.033Z" fill="#0C4F24"/>
<path d="M191 133.933C189 133.933 187 133.417 185.45 132.367C183.983 131.383 183.133 129.983 183.133 128.483C183.133 127 183.966 125.567 185.45 124.583C188.566 122.517 193.45 122.517 196.55 124.583C198.016 125.567 198.866 126.967 198.866 128.467C198.866 129.95 198.033 131.383 196.55 132.367C195 133.4 193 133.933 191 133.933ZM186.833 126.683C186.05 127.2 185.633 127.85 185.633 128.5C185.633 129.15 186.066 129.783 186.833 130.3C189.083 131.817 192.9 131.817 195.15 130.3C195.933 129.783 196.35 129.133 196.35 128.483C196.35 127.833 195.916 127.2 195.15 126.683C192.916 125.167 189.1 125.183 186.833 126.683Z" fill="#0C4F24"/>
</svg>
