<svg width="380" height="312" viewBox="0 0 380 312" fill="none" xmlns="http://www.w3.org/2000/svg">
<rect width="380" height="312" rx="2" fill="#F8FFF6"/>
<rect width="380" height="80" transform="translate(0 232)" fill="#0C4F24"/>
<path d="M126.36 279L131.34 264.4H135.98L141.1 279H138.18L133.84 266.34L134.86 266.78H132.36L133.4 266.34L129.2 279H126.36ZM129.84 275.12L130.74 272.72H136.66L137.54 275.12H129.84ZM146.733 283.28C146.213 283.28 145.679 283.26 145.133 283.22C144.599 283.18 144.099 283.127 143.633 283.06V280.74C144.113 280.793 144.626 280.84 145.173 280.88C145.719 280.933 146.233 280.96 146.713 280.96C147.606 280.96 148.326 280.853 148.873 280.64C149.433 280.427 149.839 280.087 150.093 279.62C150.359 279.167 150.493 278.587 150.493 277.88V275.74L151.093 274.38C151.053 275.38 150.846 276.233 150.473 276.94C150.099 277.633 149.593 278.167 148.953 278.54C148.313 278.9 147.573 279.08 146.733 279.08C145.986 279.08 145.306 278.94 144.693 278.66C144.093 278.38 143.573 277.993 143.133 277.5C142.706 277.007 142.373 276.427 142.133 275.76C141.893 275.093 141.773 274.38 141.773 273.62V273.2C141.773 272.44 141.893 271.733 142.133 271.08C142.386 270.413 142.739 269.833 143.193 269.34C143.646 268.847 144.186 268.467 144.813 268.2C145.439 267.933 146.133 267.8 146.893 267.8C147.786 267.8 148.559 267.993 149.213 268.38C149.879 268.767 150.399 269.327 150.773 270.06C151.146 270.793 151.353 271.693 151.393 272.76L150.913 272.84V268.14H153.113V277.72C153.113 279.04 152.886 280.107 152.433 280.92C151.979 281.733 151.279 282.327 150.333 282.7C149.399 283.087 148.199 283.28 146.733 283.28ZM147.533 276.7C148.066 276.7 148.553 276.58 148.993 276.34C149.433 276.1 149.786 275.753 150.053 275.3C150.319 274.847 150.453 274.3 150.453 273.66V272.96C150.453 272.347 150.313 271.827 150.033 271.4C149.766 270.973 149.413 270.653 148.973 270.44C148.533 270.213 148.053 270.1 147.533 270.1C146.946 270.1 146.426 270.24 145.973 270.52C145.533 270.787 145.186 271.167 144.933 271.66C144.679 272.153 144.553 272.74 144.553 273.42C144.553 274.087 144.679 274.667 144.933 275.16C145.186 275.653 145.533 276.033 145.973 276.3C146.426 276.567 146.946 276.7 147.533 276.7ZM160.605 279.38C159.672 279.38 158.852 279.22 158.145 278.9C157.452 278.58 156.872 278.153 156.405 277.62C155.952 277.073 155.605 276.467 155.365 275.8C155.138 275.133 155.025 274.453 155.025 273.76V273.38C155.025 272.66 155.138 271.967 155.365 271.3C155.605 270.62 155.952 270.02 156.405 269.5C156.872 268.967 157.445 268.547 158.125 268.24C158.805 267.92 159.592 267.76 160.485 267.76C161.658 267.76 162.638 268.02 163.425 268.54C164.225 269.047 164.825 269.72 165.225 270.56C165.625 271.387 165.825 272.28 165.825 273.24V274.24H156.205V272.54H164.085L163.225 273.38C163.225 272.687 163.125 272.093 162.925 271.6C162.725 271.107 162.418 270.727 162.005 270.46C161.605 270.193 161.098 270.06 160.485 270.06C159.872 270.06 159.352 270.2 158.925 270.48C158.498 270.76 158.172 271.167 157.945 271.7C157.732 272.22 157.625 272.847 157.625 273.58C157.625 274.26 157.732 274.867 157.945 275.4C158.158 275.92 158.485 276.333 158.925 276.64C159.365 276.933 159.925 277.08 160.605 277.08C161.285 277.08 161.838 276.947 162.265 276.68C162.692 276.4 162.965 276.06 163.085 275.66H165.645C165.485 276.407 165.178 277.06 164.725 277.62C164.272 278.18 163.692 278.613 162.985 278.92C162.292 279.227 161.498 279.38 160.605 279.38ZM167.747 279V268.14H169.947V272.8H169.747C169.747 271.693 169.894 270.773 170.187 270.04C170.481 269.293 170.914 268.733 171.487 268.36C172.074 267.987 172.801 267.8 173.667 267.8H173.787C175.081 267.8 176.061 268.22 176.727 269.06C177.394 269.887 177.727 271.127 177.727 272.78V279H174.947V272.54C174.947 271.873 174.754 271.333 174.367 270.92C173.994 270.507 173.474 270.3 172.807 270.3C172.127 270.3 171.574 270.513 171.147 270.94C170.734 271.353 170.527 271.913 170.527 272.62V279H167.747ZM185.136 279.38C184.189 279.38 183.369 279.22 182.676 278.9C181.996 278.58 181.423 278.153 180.956 277.62C180.503 277.087 180.163 276.487 179.936 275.82C179.709 275.153 179.596 274.473 179.596 273.78V273.4C179.596 272.667 179.709 271.967 179.936 271.3C180.176 270.62 180.529 270.02 180.996 269.5C181.463 268.967 182.036 268.547 182.716 268.24C183.409 267.92 184.209 267.76 185.116 267.76C186.063 267.76 186.909 267.947 187.656 268.32C188.403 268.68 188.996 269.187 189.436 269.84C189.889 270.493 190.143 271.253 190.196 272.12H187.496C187.429 271.56 187.189 271.093 186.776 270.72C186.376 270.347 185.823 270.16 185.116 270.16C184.503 270.16 183.989 270.307 183.576 270.6C183.176 270.893 182.876 271.3 182.676 271.82C182.476 272.327 182.376 272.913 182.376 273.58C182.376 274.22 182.469 274.8 182.656 275.32C182.856 275.84 183.156 276.247 183.556 276.54C183.969 276.833 184.496 276.98 185.136 276.98C185.616 276.98 186.029 276.893 186.376 276.72C186.723 276.547 186.996 276.307 187.196 276C187.409 275.693 187.543 275.347 187.596 274.96H190.296C190.243 275.84 189.983 276.613 189.516 277.28C189.063 277.933 188.456 278.447 187.696 278.82C186.949 279.193 186.096 279.38 185.136 279.38ZM192.643 279V268.14H195.423V279H192.643ZM191.123 270.22V268.14H195.423V270.22H191.123ZM193.663 266.84C193.116 266.84 192.71 266.7 192.443 266.42C192.19 266.127 192.063 265.76 192.063 265.32C192.063 264.88 192.19 264.52 192.443 264.24C192.71 263.96 193.116 263.82 193.663 263.82C194.21 263.82 194.61 263.96 194.863 264.24C195.116 264.52 195.243 264.88 195.243 265.32C195.243 265.76 195.116 266.127 194.863 266.42C194.61 266.7 194.21 266.84 193.663 266.84ZM203.087 279.38C202.154 279.38 201.334 279.22 200.627 278.9C199.934 278.58 199.354 278.153 198.887 277.62C198.434 277.073 198.087 276.467 197.847 275.8C197.62 275.133 197.507 274.453 197.507 273.76V273.38C197.507 272.66 197.62 271.967 197.847 271.3C198.087 270.62 198.434 270.02 198.887 269.5C199.354 268.967 199.927 268.547 200.607 268.24C201.287 267.92 202.074 267.76 202.967 267.76C204.14 267.76 205.12 268.02 205.907 268.54C206.707 269.047 207.307 269.72 207.707 270.56C208.107 271.387 208.307 272.28 208.307 273.24V274.24H198.687V272.54H206.567L205.707 273.38C205.707 272.687 205.607 272.093 205.407 271.6C205.207 271.107 204.9 270.727 204.487 270.46C204.087 270.193 203.58 270.06 202.967 270.06C202.354 270.06 201.834 270.2 201.407 270.48C200.98 270.76 200.654 271.167 200.427 271.7C200.214 272.22 200.107 272.847 200.107 273.58C200.107 274.26 200.214 274.867 200.427 275.4C200.64 275.92 200.967 276.333 201.407 276.64C201.847 276.933 202.407 277.08 203.087 277.08C203.767 277.08 204.32 276.947 204.747 276.68C205.174 276.4 205.447 276.06 205.567 275.66H208.127C207.967 276.407 207.66 277.06 207.207 277.62C206.754 278.18 206.174 278.613 205.467 278.92C204.774 279.227 203.98 279.38 203.087 279.38ZM214.169 279.34C212.676 279.34 211.503 279.027 210.649 278.4C209.809 277.76 209.369 276.88 209.329 275.76H211.829C211.869 276.133 212.076 276.473 212.449 276.78C212.823 277.087 213.409 277.24 214.209 277.24C214.876 277.24 215.403 277.12 215.789 276.88C216.189 276.64 216.389 276.313 216.389 275.9C216.389 275.54 216.236 275.253 215.929 275.04C215.636 274.827 215.129 274.687 214.409 274.62L213.449 274.52C212.236 274.387 211.303 274.04 210.649 273.48C209.996 272.92 209.669 272.173 209.669 271.24C209.669 270.493 209.856 269.867 210.229 269.36C210.603 268.853 211.116 268.473 211.769 268.22C212.436 267.953 213.196 267.82 214.049 267.82C215.383 267.82 216.463 268.113 217.289 268.7C218.116 269.287 218.549 270.147 218.589 271.28H216.089C216.063 270.907 215.876 270.587 215.529 270.32C215.183 270.053 214.683 269.92 214.029 269.92C213.443 269.92 212.989 270.033 212.669 270.26C212.349 270.487 212.189 270.78 212.189 271.14C212.189 271.487 212.316 271.753 212.569 271.94C212.836 272.127 213.263 272.253 213.849 272.32L214.809 272.42C216.089 272.553 217.089 272.907 217.809 273.48C218.543 274.053 218.909 274.827 218.909 275.8C218.909 276.52 218.709 277.147 218.309 277.68C217.923 278.2 217.376 278.607 216.669 278.9C215.963 279.193 215.129 279.34 214.169 279.34Z" fill="white"/>
<path d="M242 282C247.523 282 252 277.523 252 272C252 266.477 247.523 262 242 262C236.477 262 232 266.477 232 272C232 277.523 236.477 282 242 282Z" stroke="white" stroke-width="1.5" stroke-linecap="round" stroke-linejoin="round"/>
<g opacity="0.54">
<path d="M238.5 272H244.5" stroke="white" stroke-width="1.5" stroke-linecap="round" stroke-linejoin="round"/>
<path d="M242.5 275L245.5 272L242.5 269" stroke="white" stroke-width="1.5" stroke-linecap="round" stroke-linejoin="round"/>
</g>
<rect x="137.5" y="65.5" width="106" height="101" rx="19.5" fill="white"/>
<rect x="137.5" y="65.5" width="106" height="101" rx="19.5" stroke="#52A43E"/>
<path d="M201 109.183C200.95 109.183 200.916 109.183 200.866 109.183H200.783C197.633 109.083 195.283 106.65 195.283 103.65C195.283 100.583 197.783 98.1 200.833 98.1C203.883 98.1 206.383 100.6 206.383 103.65C206.366 106.667 204.016 109.1 201.016 109.2C201.016 109.183 201.016 109.183 201 109.183ZM200.833 100.583C199.15 100.583 197.783 101.95 197.783 103.633C197.783 105.283 199.066 106.617 200.716 106.683C200.733 106.667 200.866 106.667 201.016 106.683C202.633 106.6 203.883 105.267 203.9 103.633C203.9 101.95 202.533 100.583 200.833 100.583Z" fill="#0C4F24"/>
<path d="M201.017 121.467C200.367 121.467 199.717 121.417 199.067 121.3C198.383 121.183 197.933 120.533 198.05 119.85C198.167 119.167 198.817 118.717 199.5 118.833C201.55 119.183 203.717 118.8 205.167 117.833C205.95 117.317 206.367 116.667 206.367 116.017C206.367 115.367 205.933 114.733 205.167 114.217C203.717 113.25 201.517 112.867 199.45 113.233C198.767 113.367 198.117 112.9 198 112.217C197.883 111.533 198.333 110.883 199.017 110.767C201.733 110.283 204.55 110.8 206.55 112.133C208.017 113.117 208.867 114.517 208.867 116.017C208.867 117.5 208.033 118.917 206.55 119.917C205.033 120.917 203.067 121.467 201.017 121.467Z" fill="#0C4F24"/>
<path d="M180.95 109.183C180.933 109.183 180.917 109.183 180.917 109.183C177.917 109.083 175.567 106.65 175.55 103.65C175.55 100.583 178.05 98.0834 181.1 98.0834C184.15 98.0834 186.65 100.583 186.65 103.633C186.65 106.65 184.3 109.083 181.3 109.183L180.95 107.933L181.067 109.183C181.033 109.183 180.983 109.183 180.95 109.183ZM181.117 106.683C181.217 106.683 181.3 106.683 181.4 106.7C182.883 106.633 184.183 105.3 184.183 103.65C184.183 101.967 182.817 100.6 181.133 100.6C179.45 100.6 178.083 101.967 178.083 103.65C178.083 105.283 179.35 106.6 180.967 106.7C180.983 106.683 181.05 106.683 181.117 106.683Z" fill="#0C4F24"/>
<path d="M180.933 121.467C178.883 121.467 176.917 120.917 175.4 119.917C173.933 118.933 173.083 117.517 173.083 116.017C173.083 114.533 173.933 113.117 175.4 112.133C177.4 110.8 180.217 110.283 182.933 110.767C183.617 110.883 184.067 111.533 183.95 112.217C183.833 112.9 183.183 113.367 182.5 113.233C180.433 112.867 178.25 113.25 176.783 114.217C176 114.733 175.583 115.367 175.583 116.017C175.583 116.667 176.017 117.317 176.783 117.833C178.233 118.8 180.4 119.183 182.45 118.833C183.133 118.717 183.783 119.183 183.9 119.85C184.017 120.533 183.567 121.183 182.883 121.3C182.233 121.417 181.583 121.467 180.933 121.467Z" fill="#0C4F24"/>
<path d="M191 121.633C190.95 121.633 190.916 121.633 190.866 121.633H190.783C187.633 121.533 185.283 119.1 185.283 116.1C185.283 113.033 187.783 110.55 190.833 110.55C193.883 110.55 196.383 113.05 196.383 116.1C196.366 119.117 194.016 121.55 191.016 121.65C191.016 121.633 191.016 121.633 191 121.633ZM190.833 113.033C189.15 113.033 187.783 114.4 187.783 116.083C187.783 117.733 189.066 119.067 190.716 119.133C190.733 119.117 190.866 119.117 191.016 119.133C192.633 119.05 193.883 117.717 193.9 116.083C193.9 114.417 192.533 113.033 190.833 113.033Z" fill="#0C4F24"/>
<path d="M191 133.933C189 133.933 187 133.417 185.45 132.367C183.983 131.383 183.133 129.983 183.133 128.483C183.133 127 183.966 125.567 185.45 124.583C188.566 122.517 193.45 122.517 196.55 124.583C198.016 125.567 198.866 126.967 198.866 128.467C198.866 129.95 198.033 131.383 196.55 132.367C195 133.4 193 133.933 191 133.933ZM186.833 126.683C186.05 127.2 185.633 127.85 185.633 128.5C185.633 129.15 186.066 129.783 186.833 130.3C189.083 131.817 192.9 131.817 195.15 130.3C195.933 129.783 196.35 129.133 196.35 128.483C196.35 127.833 195.916 127.2 195.15 126.683C192.916 125.167 189.1 125.183 186.833 126.683Z" fill="#0C4F24"/>
</svg>
