<svg width="136" height="24" viewBox="0 0 136 24" fill="none" xmlns="http://www.w3.org/2000/svg">
<path d="M12 1.25C12.2668 1.25 12.5134 1.39168 12.6478 1.6221L15.989 7.34985L22.1834 8.91209C22.4402 8.97684 22.6437 9.17215 22.719 9.42598C22.7943 9.67981 22.7302 9.95455 22.5504 10.1488L18.318 14.7204L19.9122 21.836C19.9735 22.1096 19.8771 22.3946 19.6622 22.5747C19.4473 22.7549 19.1499 22.8001 18.8912 22.692L12 19.8128L5.10881 22.692C4.85009 22.8001 4.55269 22.7549 4.33782 22.5747C4.12295 22.3946 4.02652 22.1096 4.08782 21.836L5.68203 14.7204L1.44966 10.1488C1.26979 9.95455 1.20568 9.67981 1.281 9.42598C1.35631 9.17215 1.55988 8.97684 1.81661 8.91209L8.01099 7.34985L11.3522 1.6221C11.4866 1.39168 11.7333 1.25 12 1.25Z" fill="#FF881B"/>
<path d="M40 1.25C40.2668 1.25 40.5134 1.39168 40.6478 1.6221L43.989 7.34985L50.1834 8.91209C50.4402 8.97684 50.6437 9.17215 50.719 9.42598C50.7943 9.67981 50.7302 9.95455 50.5504 10.1488L46.318 14.7204L47.9122 21.836C47.9735 22.1096 47.8771 22.3946 47.6622 22.5747C47.4473 22.7549 47.1499 22.8001 46.8912 22.692L40 19.8128L33.1088 22.692C32.8501 22.8001 32.5527 22.7549 32.3378 22.5747C32.1229 22.3946 32.0265 22.1096 32.0878 21.836L33.682 14.7204L29.4497 10.1488C29.2698 9.95455 29.2057 9.67981 29.281 9.42598C29.3563 9.17215 29.5599 8.97684 29.8166 8.91209L36.011 7.34985L39.3522 1.6221C39.4866 1.39168 39.7333 1.25 40 1.25Z" fill="#FF881B"/>
<path d="M68 1.25C68.2668 1.25 68.5134 1.39168 68.6478 1.6221L71.989 7.34985L78.1834 8.91209C78.4402 8.97684 78.6437 9.17215 78.719 9.42598C78.7943 9.67981 78.7302 9.95455 78.5504 10.1488L74.318 14.7204L75.9122 21.836C75.9735 22.1096 75.8771 22.3946 75.6622 22.5747C75.4473 22.7549 75.1499 22.8001 74.8912 22.692L68 19.8128L61.1088 22.692C60.8501 22.8001 60.5527 22.7549 60.3378 22.5747C60.1229 22.3946 60.0265 22.1096 60.0878 21.836L61.682 14.7204L57.4497 10.1488C57.2698 9.95455 57.2057 9.67981 57.281 9.42598C57.3563 9.17215 57.5599 8.97684 57.8166 8.91209L64.011 7.34985L67.3522 1.6221C67.4866 1.39168 67.7333 1.25 68 1.25Z" fill="#FF881B"/>
<path d="M96 1.25C96.2668 1.25 96.5134 1.39168 96.6478 1.6221L99.989 7.34985L106.183 8.91209C106.44 8.97684 106.644 9.17215 106.719 9.42598C106.794 9.67981 106.73 9.95455 106.55 10.1488L102.318 14.7204L103.912 21.836C103.974 22.1096 103.877 22.3946 103.662 22.5747C103.447 22.7549 103.15 22.8001 102.891 22.692L96 19.8128L89.1088 22.692C88.8501 22.8001 88.5527 22.7549 88.3378 22.5747C88.1229 22.3946 88.0265 22.1096 88.0878 21.836L89.682 14.7204L85.4497 10.1488C85.2698 9.95455 85.2057 9.67981 85.281 9.42598C85.3563 9.17215 85.5599 8.97684 85.8166 8.91209L92.011 7.34985L95.3522 1.6221C95.4866 1.39168 95.7333 1.25 96 1.25Z" fill="#FF881B"/>
<path d="M124 1.25C124.267 1.25 124.513 1.39168 124.648 1.6221L127.989 7.34985L134.183 8.91209C134.44 8.97684 134.644 9.17215 134.719 9.42598C134.794 9.67981 134.73 9.95455 134.55 10.1488L130.318 14.7204L131.912 21.836C131.974 22.1096 131.877 22.3946 131.662 22.5747C131.447 22.7549 131.15 22.8001 130.891 22.692L124 19.8128L117.109 22.692C116.85 22.8001 116.553 22.7549 116.338 22.5747C116.123 22.3946 116.027 22.1096 116.088 21.836L117.682 14.7204L113.45 10.1488C113.27 9.95455 113.206 9.67981 113.281 9.42598C113.356 9.17215 113.56 8.97684 113.817 8.91209L120.011 7.34985L123.352 1.6221C123.487 1.39168 123.733 1.25 124 1.25Z" fill="#FF881B"/>
</svg>
