<svg width="183" height="221" viewBox="0 0 183 221" fill="none" xmlns="http://www.w3.org/2000/svg">
<path d="M68.4079 209.543C54.8727 220.494 24.9283 219.398 24.9283 219.398L1.52575e-05 219.398L5.75469e-06 2.00005L176.817 2.00004C176.817 2.00004 188.479 36.8628 176.817 53.0161C167.154 66.4009 138.555 70.9876 138.555 70.9876C138.555 70.9876 153.563 117.295 138.555 139.396C125.813 158.16 86.9592 166.063 86.9592 166.063C86.9592 166.063 82.7596 197.931 68.4079 209.543Z" fill="#F9F9F9"/>
<path d="M25.5078 219.389C25.5078 219.389 54.0043 220.078 67.2641 208.943C80.8719 197.516 86.4144 167.927 86.4144 167.927" stroke="black" stroke-width="3" stroke-linecap="round"/>
<path d="M69.2578 171.351C69.2578 171.351 122.865 162.802 138.743 137.038C156.187 108.733 132.738 52.1116 132.738 52.1116" stroke="black" stroke-width="3" stroke-linecap="round"/>
<path d="M139.601 70.9841C139.601 70.9841 164.277 67.3155 173.914 56.4009C187.899 40.5619 176.488 2.35697 176.488 2.35697" stroke="black" stroke-width="3" stroke-linecap="round"/>
</svg>
