<svg width="231" height="198" viewBox="0 0 231 198" fill="none" xmlns="http://www.w3.org/2000/svg">
<path d="M212.737 128.394C222.723 142.656 219.552 172.452 219.552 172.452L217.823 197.321L0.94894 182.239L13.2154 5.84783C13.2154 5.84783 48.8031 -3.36725 64.1085 9.387C76.7907 19.9553 79.3824 48.8036 79.3824 48.8036C79.3824 48.8036 126.619 37.0441 147.625 53.5493C165.46 67.5627 170.649 106.871 170.649 106.871C170.649 106.871 202.149 113.271 212.737 128.394Z" fill="white"/>
<path d="M219.584 171.874C219.584 171.874 222.248 143.493 212.06 129.493C201.604 115.125 172.471 107.544 172.471 107.544" stroke="black" stroke-width="3" stroke-linecap="round"/>
<path d="M174.697 124.896C174.697 124.896 169.887 70.8253 145.286 53.1983C118.26 33.833 60.1483 53.2971 60.1483 53.2971" stroke="black" stroke-width="3" stroke-linecap="round"/>
<path d="M79.4514 47.7603C79.4514 47.7603 77.5035 22.8887 67.2837 12.5177C52.4532 -2.53239 13.5486 6.20112 13.5486 6.20112" stroke="black" stroke-width="3" stroke-linecap="round"/>
</svg>
